<svg width="1200" height="800" viewBox="0 0 1200 800" fill="none" xmlns="http://www.w3.org/2000/svg">
  <rect width="1200" height="800" fill="#eef2ff" />
  <rect x="140" y="300" width="500" height="340" rx="40" fill="#ffffff" />
  <path d="M140 300L400 140L660 300" fill="#1d4ed8" />
  <rect x="240" y="420" width="90" height="90" rx="22" fill="#dbeafe" />
  <rect x="360" y="420" width="90" height="90" rx="22" fill="#dbeafe" />
  <rect x="480" y="420" width="90" height="90" rx="22" fill="#dbeafe" />
  <rect x="330" y="550" width="220" height="140" rx="30" fill="#93c5fd" />
  <rect x="760" y="330" width="300" height="310" rx="40" fill="#ffffff" />
  <path d="M760 330L880 220L1000 330" fill="#1d4ed8" />
  <rect x="820" y="430" width="70" height="90" rx="18" fill="#dbeafe" />
  <rect x="920" y="430" width="70" height="90" rx="18" fill="#dbeafe" />
  <rect x="820" y="540" width="190" height="120" rx="32" fill="#93c5fd" />
  <circle cx="300" cy="730" r="56" fill="#c7d2fe" />
  <circle cx="1020" cy="730" r="56" fill="#c7d2fe" />
</svg>