<svg width="1200" height="800" viewBox="0 0 1200 800" fill="none" xmlns="http://www.w3.org/2000/svg">
  <rect width="1200" height="800" fill="#e6f0ff" />
  <rect x="150" y="320" width="420" height="320" rx="40" fill="#ffffff" />
  <path d="M150 320L360 160L570 320" fill="#1e40af" />
  <rect x="250" y="420" width="80" height="80" rx="16" fill="#bfdbfe" />
  <rect x="370" y="420" width="80" height="80" rx="16" fill="#bfdbfe" />
  <rect x="490" y="420" width="80" height="80" rx="16" fill="#bfdbfe" />
  <rect x="330" y="560" width="120" height="80" rx="20" fill="#0f172a" />
  <rect x="780" y="350" width="220" height="220" rx="32" fill="#ffffff" />
  <path d="M780 350L890 260L1000 350" fill="#1e40af" />
  <rect x="820" y="410" width="60" height="80" rx="16" fill="#bfdbfe" />
  <rect x="900" y="410" width="60" height="80" rx="16" fill="#bfdbfe" />
  <rect x="840" y="520" width="120" height="90" rx="24" fill="#93c5fd" />
  <circle cx="320" cy="700" r="70" fill="#a5b4fc" />
  <circle cx="1040" cy="700" r="70" fill="#a5b4fc" />
</svg>