<svg width="1200" height="800" viewBox="0 0 1200 800" fill="none" xmlns="http://www.w3.org/2000/svg">
  <rect width="1200" height="800" fill="#f6f7ff" />
  <rect x="120" y="280" width="460" height="340" rx="36" fill="#ffffff" />
  <path d="M120 280L350 140L580 280" fill="#2563eb" />
  <rect x="200" y="380" width="100" height="100" rx="24" fill="#dbeafe" />
  <rect x="330" y="380" width="100" height="100" rx="24" fill="#dbeafe" />
  <rect x="460" y="380" width="100" height="100" rx="24" fill="#dbeafe" />
  <rect x="310" y="520" width="180" height="120" rx="28" fill="#60a5fa" />
  <rect x="760" y="320" width="300" height="360" rx="44" fill="#ffffff" />
  <path d="M760 320L910 180L1060 320" fill="#2563eb" />
  <rect x="820" y="420" width="70" height="110" rx="20" fill="#dbeafe" />
  <rect x="930" y="420" width="70" height="110" rx="20" fill="#dbeafe" />
  <rect x="830" y="560" width="160" height="110" rx="30" fill="#93c5fd" />
  <circle cx="320" cy="720" r="60" fill="#c7d2fe" />
  <circle cx="1040" cy="720" r="60" fill="#c7d2fe" />
</svg>